# xmcd CD database file
#
# Track frame offsets:
#	151
#	21681
#	51626
#	70446
#	94334
#	119571
#	131726
#	151294
#	167399
#	190271
#	210531
#
# Disc length: 3168 seconds
#
# Revision: 0
# Processed by: cddbd v1.5.1PL0 Copyright (c) Steve Scherf et al.
# Submitted via: CDex 1.51
#
DISCID=a80c5e0b
DTITLE=Star's studio - best loved blues
DYEAR=1900
DGENRE=Blues
TTITLE0=chill out
TTITLE1=when a guitar plays the blues
TTITLE2=still got the blues
TTITLE3=playing with my freinds
TTITLE4=five women
TTITLE5=I never loved a man
TTITLE6=knockin on heaven door
TTITLE7=all your love
TTITLE8=nighties blues
TTITLE9=damn right i got the blues
TTITLE10=moan
EXTD=
EXTT0=
EXTT1=
EXTT2=
EXTT3=
EXTT4=
EXTT5=
EXTT6=
EXTT7=
EXTT8=
EXTT9=
EXTT10=
PLAYORDER=
